<?xml version="1.0" encoding="utf-8"?><!DOCTYPE svg PUBLIC "-//W3C//DTD SVG 1.1//EN" "http://www.w3.org/Graphics/SVG/1.1/DTD/svg11.dtd"><svg viewBox="0 0 965.199 965.199" xmlns="http://www.w3.org/2000/svg" xmlns:xlink="http://www.w3.org/1999/xlink"><style>:root>svg{display:none}:root>svg:target{display:block}</style><svg viewBox="0 0 22 9" id="arrow" xmlns="http://www.w3.org/2000/svg"><defs><style>.acls-1{fill:#fff;fill-rule:evenodd}</style></defs><path class="acls-1" d="M.3 5.472h16.948l-.1 2.857a.292.292 0 000 .41l.172.172a.28.28 0 00.2.086.285.285 0 00.2-.084l4.193-4.211A.292.292 0 0022 4.5a.283.283 0 00-.084-.2L17.723.087a.289.289 0 00-.407 0l-.172.173a.287.287 0 00-.084.2.278.278 0 00.084.2l.113 2.865H.292A.3.3 0 000 3.82v1.37a.292.292 0 00.3.282z"/></svg><svg viewBox="0 0 512 512" id="author" xmlns="http://www.w3.org/2000/svg"><path d="M422.917 296.542l-71.964-9.042a7.933 7.933 0 01-6.953-7.9v-17.241a94.5 94.5 0 0031.77-64.506l1.7-5.89a31.987 31.987 0 0016.278-58.575 100.889 100.889 0 00-1.519-46.336A92.837 92.837 0 00364.775 42.2c-1.973-1.766-3.714-3.221-5.322-4.448a103.345 103.345 0 00-101.015-14.639L230.423 34.1c-29.418.937-43.947 28.1-45.291 54.985-.974 18.1 2.357 35.557 6.107 50.665a31.969 31.969 0 0014.31 50.483c3.533 9.961 7.951 18.295 15.1 30.487A94.524 94.524 0 00248 262.358V279.6a7.87 7.87 0 01-6.177 7.762c-.3.04-.557.089-.766.134h-.049c-2.075.26-22.06 2.777-32.35 4.081-9.051-18.33-18.567-36.014-28.342-52.641l-12.247-29.168a8 8 0 00-10.348-4.33l-5.766 2.307-13.063-87.916a8 8 0 00-3.885-5.735L64.654 73.088A8 8 0 0052.9 77.941l-20.63 77.424a8 8 0 001.339 6.872l53.75 71.368-5.453 2.183a8 8 0 00-4.4 10.524l12.157 28.954C98.977 310.1 108.91 341.5 120 371.2V464a32.036 32.036 0 0032 32h120a8 8 0 007.923-9.1 119 119 0 00-3.285-14.909l19.337-6.146 90.047 28.651a31.952 31.952 0 009.7 1.507H440a32.036 32.036 0 0032-32V352.08a56.006 56.006 0 00-49.083-55.538zM456 407.16l-83.693-8.369 44.944-22.472L456 382.777zm0-55.08v14.476l-38.685-6.447a8 8 0 00-4.893.736l-46.683 23.341L296 391.16l-46.984-4.7c-1.33-3.647-2.682-7.259-4-10.781a909.616 909.616 0 00-29.021-68.9c7.624-.964 17.271-2.18 22.831-2.879a69.454 69.454 0 00116.9.32l65.221 8.2A39.993 39.993 0 01456 352.08zM264 279.6v-6.483A68.377 68.377 0 00293.827 280h4.346A68.377 68.377 0 00328 273.117v6.483a23.985 23.985 0 0011.159 20.261A53.434 53.434 0 01254.6 298.6a23.967 23.967 0 009.4-19zM306.868 136h-21.736a17.589 17.589 0 00-14.732-8h-32.651A102.882 102.882 0 00248 83.158V72h8.676c13.1 0 23.6 9.578 34.718 19.719C302.323 101.69 313.624 112 328 112h32v16.081a17.65 17.65 0 00-1.6-.081h-36.8a17.589 17.589 0 00-14.732 8zM232 145.6a1.6 1.6 0 011.6-1.6h36.8a1.6 1.6 0 011.6 1.6v12.8a1.6 1.6 0 01-1.6 1.6h-36.8a1.6 1.6 0 01-1.6-1.6zm88 0a1.6 1.6 0 011.6-1.6h36.8a1.6 1.6 0 011.6 1.6v12.8a1.6 1.6 0 01-1.6 1.6h-36.8a1.6 1.6 0 01-1.6-1.6zm56 30.4v-32a16 16 0 010 32zM201.11 89.919c.919-18.377 9.56-39.839 30.89-39.839a7.985 7.985 0 002.922-.553l29.353-11.517a87.282 87.282 0 0185.349 12.365l.088.069c1.282.976 2.718 2.179 4.387 3.672 19.98 17.918 29.128 46.3 24.348 73.987-.808-.062-1.622-.1-2.446-.1v-24a8 8 0 00-8-8H328c-8.174 0-16.747-7.821-25.822-16.1C289.9 68.7 275.982 56 256.676 56H240a8 8 0 00-8 8v19.158A86.931 86.931 0 01219.582 128H216a31.855 31.855 0 00-10.672 1.836c-2.808-12.416-4.96-26.126-4.218-39.917zM216 144v32a16 16 0 010-32zm16 47.344v-15.425c.528.048 38.4.081 38.4.081a17.621 17.621 0 0017.6-17.6V152h16v6.4a17.621 17.621 0 0017.6 17.6s37.872-.033 38.4-.081c0 0-.04 18.332-.119 19.776 0 .032 0 .065-.006.1a78.567 78.567 0 01-28.229 56.089A52.385 52.385 0 01298.173 264h-4.346a52.385 52.385 0 01-33.473-12.119A78.589 78.589 0 01232 191.344zm-1.971 189.945l1.274 3.4-5.042-.5-46.683-23.341a8.008 8.008 0 00-4.893-.736l-5.012.835a788.855 788.855 0 01-12.854-33.781l-15.078 5.354a813.167 813.167 0 0011.76 31.122l-18.119 3.02c-10.377-27.677-19.729-56.872-28.515-89.043l62.817-25.142c9.366 16.246 18.473 33.459 27.121 51.262a893.166 893.166 0 0133.224 77.55zM162.6 238.071l-60.969 24.375L95.4 247.62l60.959-24.4zm-113.868-82.35l13.59-51.015 22.809 54.321a16.047 16.047 0 00-2.175 3.685 15.727 15.727 0 00.008 12.246 16.313 16.313 0 0021.037 8.7 15.974 15.974 0 008.886-8.717 15.711 15.711 0 00-.008-12.243 16.2 16.2 0 00-12.937-9.722L77.261 98.957l46.369 27.03 13.058 87.874-33.938 13.584zM251.47 480l9.914-3.158c.287 1.055.567 2.11.83 3.158zm12.9-20.9l-63.222 20.14a16.8 16.8 0 01-4.908.76H152a16.019 16.019 0 01-16-16v-18.584l32.809-13.123 53.231 10.024 47.539 15.126zM456 464a16.019 16.019 0 01-16 16h-44.274a15.964 15.964 0 01-4.851-.753l-164.449-52.325a7.886 7.886 0 00-.946-.238l-56-10.546a8 8 0 00-4.451.434L136 428.184v-45.407l38.749-6.458 45.673 22.836a7.989 7.989 0 002.782.805L456 423.24z"/><path d="M287.745 223.821c2.068-.1 14.442-.1 16.511 0 2.374.12 4.811.179 7.229.179a116.169 116.169 0 0016.5-1.052l1.222-.186-2.4-15.818-1.22.185a113.735 113.735 0 01-20.512.713c-2.337-.119-15.795-.119-18.131 0a113.9 113.9 0 01-20.512-.713l-1.221-.185-2.4 15.818 1.223.186a129.128 129.128 0 0023.711.873zM131.464 301.727a868.823 868.823 0 005.012 15.447l15.172-5.079a853.166 853.166 0 01-4.919-15.163z"/></svg><svg viewBox="0 0 49.125 49.13" id="benefit1" xmlns="http://www.w3.org/2000/svg"><defs><style>.ccls-1{fill:#a3bbc8;fill-rule:evenodd}</style></defs><path class="ccls-1" d="M45.406 11.58a.937.937 0 00-1.592.99 22.684 22.684 0 01-32.86 30.14.938.938 0 00-1.125 1.5 24.559 24.559 0 0035.577-32.63zm-23.03 21.94h-7.55l4.743-4.75a12.68 12.68 0 003.744-9.03 5.844 5.844 0 10-11.688 0 .938.938 0 001.875 0 3.969 3.969 0 117.938 0 10.836 10.836 0 01-3.195 7.71l-6.344 6.34a.949.949 0 00-.2 1.03.93.93 0 00.866.57h9.813a.935.935 0 10-.002-1.87zm15.039-6.44h-2.6v-1.52a.938.938 0 00-1.875 0v1.52h-5.286l5.286-8.85v4.21a.938.938 0 101.875 0v-7.62a.957.957 0 00-.456-.8.94.94 0 00-1.286.33l-7.875 13.19a.933.933 0 00-.011.94.951.951 0 00.816.48h6.938v5.5a.938.938 0 001.875 0v-5.5h2.6a.94.94 0 00-.001-1.88zm5.33-22.63a.938.938 0 10-1.875.04l.042 1.75A24.556 24.556 0 007.363 42.09a.93.93 0 00.656.27.92.92 0 00.669-.28.942.942 0 00-.013-1.33A22.679 22.679 0 0124.557 1.88a22.745 22.745 0 0115.107 5.77l-1.843.04a.935.935 0 00.022 1.87h.023l4.06-.09a.934.934 0 00.915-.96z"/></svg><svg viewBox="0 0 49.126 29.35" id="benefit2" xmlns="http://www.w3.org/2000/svg"><defs><style>.dcls-1{fill:#a3bbc8;fill-rule:evenodd}</style></defs><path id="ddelivery-truck" class="dcls-1" d="M812.816 1025.33h-6.126a.79.79 0 000 1.58h6.126a.79.79 0 000-1.58zm.524 11.01h-5.6a.785.785 0 100 1.57h5.6a.785.785 0 100-1.57zm-2.094-4.72H804.6a.79.79 0 000 1.58h6.65a.79.79 0 00-.004-1.58zm0 11.01h-.646a.785.785 0 100 1.57h.644a.785.785 0 10.002-1.57zm-3.263 0H804.6a.785.785 0 100 1.57h3.387a.785.785 0 10-.004-1.57zm36.86-19.86h-6.657v-1.42a.784.784 0 00-.786-.78h-12.175a.785.785 0 100 1.57h11.39v17.22a.786.786 0 101.571 0v-15.02h6.657a6.519 6.519 0 016.509 6.52v13.29h-2a4.974 4.974 0 00-9.824 0h-1.345v-1.12a.786.786 0 10-1.571 0v1.12h-8.336a4.974 4.974 0 00-9.823 0h-1.634v-22.01h5.261a.785.785 0 100-1.57h-6.046a.783.783 0 00-.785.78v23.59a.791.791 0 00.785.79h2.419a4.974 4.974 0 009.823 0h11.252a4.974 4.974 0 009.824 0h2.782a.791.791 0 00.785-.79v-14.08a8.094 8.094 0 00-8.076-8.09zm-21.475 25.58a3.41 3.41 0 113.4-3.41 3.411 3.411 0 01-3.4 3.41zm21.075 0a3.411 3.411 0 01-3.4-3.41 3.4 3.4 0 113.4 3.41zm.4-22.44h-4.3a.791.791 0 00-.785.79v7.39a.791.791 0 00.785.79H849a.792.792 0 00.786-.79v-3.23a4.949 4.949 0 00-4.943-4.95zm3.367 7.39h-6.882v-5.81h3.515a3.371 3.371 0 013.367 3.37v2.44zm-24.842 9.61a2.03 2.03 0 102.024 2.03 2.029 2.029 0 00-2.024-2.03zm0 2.49a.46.46 0 01-.455-.46.455.455 0 01.909 0 .46.46 0 01-.454.46zm21.075-2.49a2.03 2.03 0 102.025 2.03 2.03 2.03 0 00-2.025-2.03zm0 2.49a.46.46 0 01-.454-.46.454.454 0 01.908 0 .46.46 0 01-.454.46zm4.552-8.37a.783.783 0 00-.785.78v1.99a.786.786 0 101.571 0v-1.99a.784.784 0 00-.781-.78z" transform="translate(-803.812 -1020.56)"/></svg><svg viewBox="0 0 49.13 43.84" id="benefit3" xmlns="http://www.w3.org/2000/svg"><defs><style>.ecls-1{fill:#a3bbc8;fill-rule:evenodd}</style></defs><path id="ecredit-card" class="ecls-1" d="M1444.43 1042.32a.83.83 0 00-.84.83v8.27a2.164 2.164 0 01-2.16 2.16h-39.34a2.164 2.164 0 01-2.16-2.16v-11.92h27.29a.84.84 0 100-1.68h-27.29v-5.47h9.87a.828.828 0 00.83-.83.837.837 0 00-.83-.84h-9.87v-2.88a2.166 2.166 0 012.16-2.17h25.13a.835.835 0 100-1.67h-25.13a3.839 3.839 0 00-3.83 3.84v23.62a3.837 3.837 0 003.83 3.83h39.34a3.837 3.837 0 003.83-3.83v-8.27a.828.828 0 00-.83-.83zm-17.21-11.64H1413a.837.837 0 00-.83.84.828.828 0 00.83.83h14.22a.837.837 0 00.84-.83.845.845 0 00-.84-.84zm-9.24 11.56h-14.27a.835.835 0 000 1.67h14.27a.835.835 0 100-1.67zm-6.08 3.99h-8.19a.835.835 0 000 1.67h8.19a.835.835 0 000-1.67zm34.63-13.61a.832.832 0 00.84-.84v-4.77a3.038 3.038 0 00-2.39-2.97v-6.02a6.6 6.6 0 10-13.19 0v6.02a3.053 3.053 0 00-2.4 2.97v10.75a3.045 3.045 0 003.04 3.04h11.9a3.039 3.039 0 003.04-3.04v-3.19a.835.835 0 00-1.67 0v3.19a1.379 1.379 0 01-1.37 1.37h-11.9a1.379 1.379 0 01-1.37-1.37v-10.75a1.379 1.379 0 011.37-1.37h11.9a1.379 1.379 0 011.37 1.37v4.77a.83.83 0 00.83.84zm-3.23-8.65h-9.84v-5.95a4.92 4.92 0 119.84 0v5.95zm-4.92 4.32a3.092 3.092 0 00-.83 6.07v2.04a.83.83 0 00.83.84.839.839 0 00.84-.84v-2.04a3.094 3.094 0 00-.84-6.07zm0 4.52a1.425 1.425 0 111.42-1.43 1.428 1.428 0 01-1.42 1.43z" transform="translate(-1398.25 -1011.41)"/></svg><svg viewBox="0 0 512 512" id="burger" xmlns="http://www.w3.org/2000/svg"><path d="M464.883 64.267H47.117C21.137 64.267 0 85.403 0 111.416c0 25.98 21.137 47.117 47.117 47.117h417.766c25.98 0 47.117-21.137 47.117-47.117 0-26.013-21.137-47.149-47.117-47.149zM464.883 208.867H47.117C21.137 208.867 0 230.003 0 256.016c0 25.98 21.137 47.117 47.117 47.117h417.766c25.98 0 47.117-21.137 47.117-47.117 0-26.013-21.137-47.149-47.117-47.149zM464.883 353.467H47.117C21.137 353.467 0 374.604 0 400.616c0 25.98 21.137 47.117 47.117 47.117h417.766c25.98 0 47.117-21.137 47.117-47.117 0-26.012-21.137-47.149-47.117-47.149z"/></svg><svg viewBox="0 0 64 64" id="calendar" xmlns="http://www.w3.org/2000/svg"><path d="M57 8h-5V6a4 4 0 00-8 0v2h-8V6a4 4 0 00-8 0v2h-8V6a4 4 0 00-8 0v2H7a5 5 0 00-5 5v40a5 5 0 005 5h28a1 1 0 000-2H7a3.009 3.009 0 01-3-3V22h56v17a1 1 0 002 0V13a5 5 0 00-5-5zM46 6a2 2 0 014 0v6a2 2 0 01-4 0zM30 6a2 2 0 014 0v6a2 2 0 01-4 0zM14 6a2 2 0 014 0v6a2 2 0 01-4 0zm46 14H4v-7a3.009 3.009 0 013-3h5v2a4 4 0 008 0v-2h8v2a4 4 0 008 0v-2h8v2a4 4 0 008 0v-2h5a3.009 3.009 0 013 3z"/><path d="M30 29a2 2 0 00-2-2h-4a2 2 0 00-2 2v3a2 2 0 002 2h4a2 2 0 002-2zm-6 3v-3h4v3zM18 29a2 2 0 00-2-2h-4a2 2 0 00-2 2v3a2 2 0 002 2h4a2 2 0 002-2zm-6 3v-3h4v3zM52 34a2 2 0 002-2v-3a2 2 0 00-2-2h-4a2 2 0 00-2 2v3a2 2 0 002 2zm-4-5h4v3h-4zM30 38a2 2 0 00-2-2h-4a2 2 0 00-2 2v3a2 2 0 002 2h4a2 2 0 002-2zm-6 3v-3h4v3zM18 38a2 2 0 00-2-2h-4a2 2 0 00-2 2v3a2 2 0 002 2h4a2 2 0 002-2zm-6 3v-3h4v3zM28 45h-4a2 2 0 00-2 2v3a2 2 0 002 2h4a2 2 0 002-2v-3a2 2 0 00-2-2zm-4 5v-3h4v3zM36 34h4a2 2 0 002-2v-3a2 2 0 00-2-2h-4a2 2 0 00-2 2v3a2 2 0 002 2zm0-5h4v3h-4zM34 41a2 2 0 002 2 1 1 0 000-2v-3h4a1 1 0 000-2h-4a2 2 0 00-2 2zM16 45h-4a2 2 0 00-2 2v3a2 2 0 002 2h4a2 2 0 002-2v-3a2 2 0 00-2-2zm-4 5v-3h4v3z"/><path d="M49 36a13 13 0 1013 13 13.015 13.015 0 00-13-13zm0 24a11 11 0 1111-11 11.013 11.013 0 01-11 11z"/><path d="M54.778 44.808L47 52.586l-3.535-3.536a1 1 0 00-1.414 1.414l4.242 4.243a1 1 0 001.414 0l8.485-8.485a1 1 0 00-1.414-1.414z"/></svg><svg viewBox="0 0 8.13 15.44" id="facebook" xmlns="http://www.w3.org/2000/svg"><defs><style>.hcls-1{fill:#a1a1a1;fill-rule:evenodd}</style></defs><path id="hPath_1" data-name="Path 1" class="hcls-1" d="M1069.19 1899.12c.41 0 .83.03 1.24.05.27.01.54.04.79.07l-.02 2.49h-.2c-.27 0-.54-.01-.82-.01-.2 0-.4.01-.61.01a1.041 1.041 0 00-1.18 1.09c-.02.6-.03 1.9-.03 1.97.03 0 .68.01 1.34.01.32 0 .64 0 .87-.01h.53c-.13.96-.26 1.87-.39 2.8h-2.35l-.06 6.97h-2.89l.06-6.99h-2.37l.02-2.77h2.38v-.21c.01-.56 0-1.12.02-1.68a7.581 7.581 0 01.09-1.06 3.145 3.145 0 011.27-2.08 3.6 3.6 0 012.08-.64c.08 0 .15-.01.23-.01z" transform="translate(-1063.09 -1899.12)"/></svg><svg viewBox="0 0 480.026 480.026" id="fast-forward" xmlns="http://www.w3.org/2000/svg"><path d="M475.922 229.325l-144-160c-3.072-3.392-7.36-5.312-11.904-5.312h-96a16.052 16.052 0 00-14.624 9.472c-2.56 5.792-1.504 12.544 2.72 17.216l134.368 149.312-134.368 149.28c-4.224 4.704-5.312 11.456-2.72 17.216 2.592 5.792 8.32 9.504 14.624 9.504h96c4.544 0 8.832-1.952 11.904-5.28l144-160c5.472-6.08 5.472-15.36 0-21.408z"/><path d="M267.922 229.325l-144-160c-3.072-3.392-7.36-5.312-11.904-5.312h-96a16.052 16.052 0 00-14.624 9.472c-2.56 5.792-1.504 12.544 2.72 17.216l134.368 149.312L4.114 389.293c-4.224 4.704-5.312 11.456-2.72 17.216 2.592 5.792 8.32 9.504 14.624 9.504h96c4.544 0 8.832-1.952 11.904-5.28l144-160c5.472-6.08 5.472-15.36 0-21.408z"/></svg><svg viewBox="0 0 22.66 14.38" id="google" xmlns="http://www.w3.org/2000/svg"><defs><style>.jcls-1{fill:#888;fill-rule:evenodd}</style></defs><path id="jUnion_6" data-name="Union 6" class="jcls-1" d="M1052.75 1960.35a7.121 7.121 0 01-6.59-5.65 6.6 6.6 0 01-.14-1.93 7.277 7.277 0 015.49-6.56 5.282 5.282 0 011.18-.19c.23-.01.46-.02.69-.02a6.786 6.786 0 013.4.93 9.386 9.386 0 011.27.93c-.72.71-1.41 1.4-2.11 2.09a3.914 3.914 0 00-2.1-1.02 4.259 4.259 0 00-.61-.04 4.307 4.307 0 00-4.14 3.35 3.817 3.817 0 00-.1 1.3 4.3 4.3 0 002.94 3.74 4.35 4.35 0 001.25.19c.1 0 .2-.01.3-.01a4.2 4.2 0 002.09-.67 3.314 3.314 0 001.43-2.17h-3.85c0-.09.02-1.89.02-2.76l.01-.12h6.76a7.773 7.773 0 01-1.28 6.05 6.273 6.273 0 01-3.55 2.32 7.539 7.539 0 01-1.94.25c-.14 0-.28 0-.42-.01zm13.33-4.05h-1.89v-.07l.02-2.43h-2.51v-.08l.02-1.82v-.07h2.5l.02-2.43v-.07h1.96v.07l-.02 2.43h2.51v.07l-.01 1.82v.08h-2.51l-.02 2.43v.07h-.07z" transform="translate(-1046.03 -1946)"/></svg><svg viewBox="0 0 965.199 965.199" id="grid" xmlns="http://www.w3.org/2000/svg"><path d="M263.85 30c0-16.6-13.4-30-30-30h-202c-16.6 0-30 13.4-30 30v202.1c0 16.6 13.4 30 30 30h202.1c16.6 0 30-13.4 30-30V30h-.1zM613.55 30c0-16.6-13.4-30-30-30h-202c-16.6 0-30 13.4-30 30v202.1c0 16.6 13.4 30 30 30h202c16.6 0 30-13.4 30-30V30zM963.25 30c0-16.6-13.4-30-30-30h-202c-16.601 0-30 13.4-30 30v202.1c0 16.6 13.399 30 30 30h202.1c16.601 0 30-13.4 30-30V30h-.1zM263.85 381.6c0-16.6-13.4-30-30-30h-202c-16.6 0-30 13.4-30 30v202c0 16.6 13.4 30 30 30h202.1c16.6 0 30-13.4 30-30v-202h-.1zM613.55 381.6c0-16.6-13.4-30-30-30h-202c-16.6 0-30 13.4-30 30v202c0 16.6 13.4 30 30 30h202c16.6 0 30-13.4 30-30v-202zM963.25 381.6c0-16.6-13.4-30-30-30h-202c-16.601 0-30 13.4-30 30v202c0 16.6 13.399 30 30 30h202.1c16.601 0 30-13.4 30-30v-202h-.1zM233.85 703.1h-202c-16.6 0-30 13.4-30 30v202.1c0 16.602 13.4 30 30 30h202.1c16.6 0 30-13.398 30-30V733.1c-.1-16.5-13.5-30-30.1-30zM583.55 703.1h-202c-16.6 0-30 13.4-30 30v202.1c0 16.602 13.4 30 30 30h202c16.6 0 30-13.398 30-30V733.1c0-16.5-13.401-30-30-30zM933.25 703.1h-202c-16.601 0-30 13.4-30 30v202.1c0 16.602 13.399 30 30 30h202.1c16.601 0 30-13.398 30-30V733.1c-.1-16.5-13.5-30-30.1-30z"/></svg><svg viewBox="0 0 15.28 15.281" id="icon" xmlns="http://www.w3.org/2000/svg"><defs><style>.lcls-1{fill:#243f4d;fill-rule:evenodd}</style></defs><path id="licon" class="lcls-1" d="M1547.7 72.076a.617.617 0 01.75.485 2.583 2.583 0 00.78 1.489 3.036 3.036 0 001.49.777.636.636 0 01.49.743.649.649 0 01-.72.515 4.21 4.21 0 01-2.14-1.13 4.164 4.164 0 01-1.13-2.136.6.6 0 01.48-.743zm3.28-6.076a6.267 6.267 0 016.28 6.257 6.136 6.136 0 01-.57 2.6l2.34 2.036c1.7 1.746.74 3.266.29 3.717-.42.454-1.99 1.414-3.73-.292l-2.06-2.35A6.261 6.261 0 111550.98 66zm5.55 13.517a1.352 1.352 0 001.88.226 1.313 1.313 0 00-.23-1.874l-2.16-1.88a6.236 6.236 0 01-1.37 1.34zm-5.55-2.312a4.948 4.948 0 10-4.97-4.948 4.963 4.963 0 004.97 4.943z" transform="translate(-1544.72 -66)"/></svg><svg viewBox="0 0 17.87 15.531" id="icon2" xmlns="http://www.w3.org/2000/svg"><defs><style>.mcls-1{fill:#243f4d;fill-rule:evenodd}</style></defs><path class="mcls-1" d="M8.94 15.526a.731.731 0 01-.28-.056C8.31 15.32.01 11.721.01 4.71A28.181 28.181 0 0013.06.003a4.817 4.817 0 014.81 4.684c0 7.034-8.29 10.634-8.65 10.783a.7.7 0 01-.28.056zM4.83 1.388a3.427 3.427 0 00-3.41 3.346c0 5.407 6.13 8.662 7.52 9.334 1.4-.672 7.52-3.93 7.52-9.358a3.406 3.406 0 00-6.81.024.709.709 0 01-.71.669.694.694 0 01-.7-.669 3.427 3.427 0 00-3.41-3.347z"/></svg><svg viewBox="0 0 18.94 16.969" id="icon3" xmlns="http://www.w3.org/2000/svg"><defs><style>.ncls-1{fill:#243f4d;fill-rule:evenodd}</style></defs><path class="ncls-1" d="M5.53 16.978a2.074 2.074 0 110-4.147 2.056 2.056 0 011.46.6 2.03 2.03 0 01.61 1.466 2.071 2.071 0 01-2.07 2.081zm0-2.963a.889.889 0 10.34 1.71.9.9 0 00.55-.824.92.92 0 00-.26-.629.9.9 0 00-.63-.257zm8.39 2.963a2.045 2.045 0 01-1.46-.607 2.068 2.068 0 011.46-3.54 1.953 1.953 0 011.47.6 2.085 2.085 0 01-.67 3.383 2.093 2.093 0 01-.8.164zm0-2.963a.978.978 0 00-.82.548.887.887 0 001.16 1.161.891.891 0 00.29-1.452.9.9 0 00-.63-.257zm-11.27.164a.562.562 0 01-.25-.056.59.59 0 01-.29-.787 3.686 3.686 0 013.05-2.151L4.11 5.794a.591.591 0 111.16-.228l1.09 5.578h9.43l1.8-6.771H4.29A4.346 4.346 0 01.01.68.587.587 0 01.5.007a.6.6 0 01.68.5 3.159 3.159 0 003.11 2.682h14.07a.582.582 0 01.47.232.594.594 0 01.11.513l-2.13 7.956a.59.59 0 01-.57.44H5.88a.03.03 0 00-.02 0 2.66 2.66 0 00-2.68 1.51.586.586 0 01-.53.338z"/></svg><svg viewBox="0 0 20.03 20.031" id="icon4" xmlns="http://www.w3.org/2000/svg"><defs><style>.ocls-1{fill:#fff;fill-rule:evenodd}</style></defs><path class="ocls-1" d="M2.15 4.287a2.146 2.146 0 112.14-2.145 2.145 2.145 0 01-2.14 2.145zm0 7.869a2.146 2.146 0 112.14-2.147 2.146 2.146 0 01-2.14 2.147zm0 7.868a2.146 2.146 0 112.14-2.146 2.145 2.145 0 01-2.14 2.146zm7.86-15.737a2.146 2.146 0 112.15-2.145 2.143 2.143 0 01-2.15 2.145zm0 7.869a2.146 2.146 0 112.15-2.147 2.144 2.144 0 01-2.15 2.147zm0 7.868a2.146 2.146 0 112.15-2.146 2.143 2.143 0 01-2.15 2.146zm7.87-15.737a2.146 2.146 0 112.15-2.145 2.143 2.143 0 01-2.15 2.145zm0 7.869a2.146 2.146 0 112.15-2.147 2.144 2.144 0 01-2.15 2.147zm0 7.868a2.146 2.146 0 112.15-2.146 2.143 2.143 0 01-2.15 2.146z"/></svg><svg viewBox="0 0 13.62 13.66" id="insta" xmlns="http://www.w3.org/2000/svg"><defs><style>.pcls-1{fill:#a1a1a1;fill-rule:evenodd}</style></defs><path id="pUnion_2" data-name="Union 2" class="pcls-1" d="M1133.34 1913.46a3.431 3.431 0 01-2.72-2.98 38.588 38.588 0 01.13-7.67 3.483 3.483 0 012.98-2.65 27.381 27.381 0 013.42-.15c1.28 0 2.56.03 3.33.07a3.78 3.78 0 012.5 1.02 3.638 3.638 0 011.09 2.33 43.2 43.2 0 01-.15 7.35 3.485 3.485 0 01-3.02 2.73 32.586 32.586 0 01-3.76.15 23.5 23.5 0 01-3.8-.2zm.73-12.12a2.349 2.349 0 00-2.18 2.06 45.652 45.652 0 00-.05 6.9 2.224 2.224 0 001.69 1.93 20.971 20.971 0 003.67.2c1.43 0 2.84-.05 3.37-.1a2.341 2.341 0 002.18-2.07 48.648 48.648 0 00.09-6.71 2.3 2.3 0 00-2.05-2.18 30.906 30.906 0 00-3.41-.13c-1.36 0-2.72.04-3.31.1zm-.25 5.5a3.517 3.517 0 013.53-3.5 3.459 3.459 0 013.47 3.5 3.53 3.53 0 01-3.53 3.5 3.466 3.466 0 01-3.47-3.5zm1.23-.03a2.252 2.252 0 002.23 2.29h.02a2.284 2.284 0 002.28-2.24 2.237 2.237 0 00-2.22-2.29h-.02a2.293 2.293 0 00-2.29 2.24zm5.12-3.61a.824.824 0 01.82-.82h.01a.815.815 0 01.81.82.826.826 0 01-.83.82.815.815 0 01-.81-.82z" transform="translate(-1130.5 -1900)"/></svg><svg viewBox="0 0 17.19 17.19" id="instagram" xmlns="http://www.w3.org/2000/svg"><defs><style>.qcls-1{fill:#888;fill-rule:evenodd}</style></defs><path id="qUnion_5" data-name="Union 5" class="qcls-1" d="M1004.59 1961.94a4.322 4.322 0 01-3.43-3.75c-.23-1.45-.25-8.19.17-9.65a4.387 4.387 0 013.75-3.35 34.173 34.173 0 014.31-.19c1.6 0 3.22.04 4.19.1a4.724 4.724 0 013.14 1.28 4.517 4.517 0 011.38 2.94c.12 1.35.21 7.74-.19 9.24a4.411 4.411 0 01-3.8 3.44 42.333 42.333 0 01-4.74.19 29.143 29.143 0 01-4.78-.25zm.92-15.26a2.958 2.958 0 00-2.75 2.59 57.587 57.587 0 00-.06 8.69 2.8 2.8 0 002.12 2.43 27.569 27.569 0 004.63.25c1.8 0 3.57-.06 4.24-.13a2.941 2.941 0 002.75-2.6 61.315 61.315 0 00.11-8.45 2.9 2.9 0 00-2.58-2.74 40.212 40.212 0 00-4.3-.16c-1.71 0-3.41.04-4.16.12zm-.32 6.92a4.445 4.445 0 014.45-4.41 4.37 4.37 0 014.37 4.41 4.458 4.458 0 01-4.45 4.41 4.37 4.37 0 01-4.37-4.41zm1.55-.03a2.834 2.834 0 002.81 2.88h.02a2.882 2.882 0 002.88-2.82 2.82 2.82 0 00-2.8-2.88h-.03a2.881 2.881 0 00-2.88 2.82zm6.45-4.55a1.029 1.029 0 011.03-1.03h.01a1.016 1.016 0 011.02 1.04 1.035 1.035 0 01-1.04 1.02 1.014 1.014 0 01-1.02-1.03z" transform="translate(-1001 -1945)"/></svg><svg viewBox="0 0 24 24" id="list" xmlns="http://www.w3.org/2000/svg"><path d="M5 0H1a1 1 0 00-1 1v4a1 1 0 001 1h4a1 1 0 001-1V1a1 1 0 00-1-1zM23 0H9a1 1 0 00-1 1v4a1 1 0 001 1h14a1 1 0 001-1V1a1 1 0 00-1-1zM5 9H1a1 1 0 00-1 1v4a1 1 0 001 1h4a1 1 0 001-1v-4a1 1 0 00-1-1zM23 9H9a1 1 0 00-1 1v4a1 1 0 001 1h14a1 1 0 001-1v-4a1 1 0 00-1-1zM5 18H1a1 1 0 00-1 1v4a1 1 0 001 1h4a1 1 0 001-1v-4a1 1 0 00-1-1zM23 18H9a1 1 0 00-1 1v4a1 1 0 001 1h14a1 1 0 001-1v-4a1 1 0 00-1-1z"/></svg><svg viewBox="0 0 41.78 40.406" id="mission-awards" xmlns="http://www.w3.org/2000/svg"><defs><style>.scls-1{fill:#a3bbc8;fill-rule:evenodd}</style></defs><path class="scls-1" d="M12.56 31.95a8.516 8.516 0 01.83-3.671L.17 7.833a.919.919 0 01.11-1.139L6.6.276A.9.9 0 017.23.01h27.35a.882.882 0 01.63.266l6.32 6.418a.906.906 0 01.11 1.139L28.42 28.28a8.508 8.508 0 01.83 3.67 8.346 8.346 0 11-16.69 0zm1.79 0a6.556 6.556 0 106.56-6.661 6.617 6.617 0 00-6.56 6.661zm8.55-8.23a8.324 8.324 0 014.47 2.884L39.24 8.242H32.9zm-8.46 2.883a8.354 8.354 0 014.48-2.883L8.91 8.242H2.57zm6.45-3.127h.03l9.85-15.234H11.04zM3.07 6.429h35.67l-4.53-4.606H7.6zm17.25 28.919v-4.9h-.53a.907.907 0 010-1.814h1.42a.9.9 0 01.89.908v5.808a.89.89 0 11-1.78-.007z"/></svg><svg viewBox="0 0 36.41 37.719" id="mission-projects" xmlns="http://www.w3.org/2000/svg"><defs><style>.tcls-1{fill:#a3bbc8;fill-rule:evenodd}</style></defs><path class="tcls-1" d="M1.975 37.71A1.984 1.984 0 010 35.719V8.441a.915.915 0 01.264-.643L7.74.256a.9.9 0 01.638-.267h19.09a1.98 1.98 0 011.97 1.991v2.87a.9.9 0 11-1.8 0V1.98a.172.172 0 00-.17-.17H9.278v5.552a1.98 1.98 0 01-1.97 1.99h-5.5v26.367a.17.17 0 00.168.17h25.5a.173.173 0 00.17-.17v-13.9a.9.9 0 111.8 0v13.9a1.98 1.98 0 01-1.97 1.991h-25.5zM3.083 7.532H7.31a.17.17 0 00.168-.17V3.097zM7.059 31.24a.91.91 0 010-1.82H11l1.39-5.066a.9.9 0 01.23-.4l.02-.015H7.059a.91.91 0 010-1.82h7.381l5.43-5.48H7.059a.911.911 0 010-1.821H21.68l8.43-8.5a3.038 3.038 0 014.32 0l1.06 1.071a3.1 3.1 0 010 4.356L18 29.382a.889.889 0 01-.39.234l-5.7 1.6c-.03.007-.23.029-.23.029H7.059zm5.921-2.218l2.65-.744-1.91-1.933zm1.56-4.424l2.83 2.853L31.8 12.889l-2.83-2.852zm16.84-17L30.25 8.75l2.83 2.853 1.13-1.147a1.264 1.264 0 000-1.782l-1.06-1.071a1.225 1.225 0 00-.88-.369 1.265 1.265 0 00-.89.368z"/></svg><svg viewBox="0 0 43.12 39.094" id="mission-revenue" xmlns="http://www.w3.org/2000/svg"><defs><style>.ucls-1{fill:#a3bbc8;fill-rule:evenodd}</style></defs><path class="ucls-1" d="M37.87 9.304V2.178A2.174 2.174 0 0036.82.291 2.076 2.076 0 0034.69.27a48.669 48.669 0 01-20.7 6.383l-6.68.034a3.286 3.286 0 00-3.23 2.949H2.72A2.749 2.749 0 00.01 12.41v6.1a2.748 2.748 0 002.71 2.774h1.36a3.32 3.32 0 001.91 2.664l4.85 13.723a2.118 2.118 0 001.98 1.428h4.86a2.1 2.1 0 001.73-.925 2.221 2.221 0 00.25-1.986l-4.15-11.785a48.668 48.668 0 0119.18 6.244 2.08 2.08 0 002.13-.021 2.174 2.174 0 001.05-1.887v-7.126a6.228 6.228 0 000-12.309zM4.05 19.14H2.72a.622.622 0 01-.62-.634v-6.1a.623.623 0 01.62-.634h1.33v7.364zm2.78 2.844a1.2 1.2 0 01-.69-1.1V10.03a1.185 1.185 0 011.17-1.2h5.67v13.262H7.23a1.027 1.027 0 01-.4-.108zm10.88 14.93a.037.037 0 01-.01.028c-.01.013-.01.013-.02.013h-4.86a.049.049 0 01-.03-.018L8.31 24.229h4.92zm18.08-8.179a.037.037 0 01-.03.041.04.04 0 01-.05 0 50.66 50.66 0 00-20.65-6.57v-13.5a50.692 50.692 0 0020.65-6.571.04.04 0 01.05 0 .037.037 0 01.03.041v26.557zm2.08-9.292v-7.974a4.089 4.089 0 010 7.974z"/></svg><svg viewBox="0 0 20 20" id="products-icon1" xmlns="http://www.w3.org/2000/svg"><defs><style>.vcls-1{fill:#a3bbc8;fill-rule:evenodd}</style></defs><path id="vForma_1" data-name="Forma 1" class="vcls-1" d="M759.45 1579.8l-4.588-4.59a8.827 8.827 0 01-2.651 2.65l4.588 4.59a1.874 1.874 0 002.651-2.65zm-4.45-9.3a7.5 7.5 0 10-7.5 7.5 7.5 7.5 0 007.5-7.5zm-7.5 5.62a5.625 5.625 0 115.625-5.62 5.628 5.628 0 01-5.625 5.62zm-4.375-5.62h1.25a3.135 3.135 0 013.125-3.13v-1.25a4.386 4.386 0 00-4.375 4.38z" transform="translate(-740 -1563)"/></svg><svg viewBox="0 0 22 20" id="products-icon2" xmlns="http://www.w3.org/2000/svg"><defs><style>.wcls-1{fill:#a3bbc8;fill-rule:evenodd}</style></defs><path id="wForma_1" data-name="Forma 1" class="wcls-1" d="M800.814 1564.63h2.333l3.323 12.04a.812.812 0 00.787.59h10.214a.821.821 0 00.746-.48l3.717-8.56a.836.836 0 00-.068-.78.813.813 0 00-.678-.37H809.9a.82.82 0 000 1.64h10.04l-3.011 6.92h-9.062l-3.323-12.03a.808.808 0 00-.787-.6h-2.943a.815.815 0 000 1.63zm5.67 18.37a1.85 1.85 0 10-1.845-1.85 1.85 1.85 0 001.845 1.85zm11.53 0h.135a1.907 1.907 0 10-.135 0z" transform="translate(-800 -1563)"/></svg><svg viewBox="0 0 22 18" id="products-icon3" xmlns="http://www.w3.org/2000/svg"><defs><style>.xcls-1{fill:#a3bbc8;fill-rule:evenodd}</style></defs><path id="xForma_1" data-name="Forma 1" class="xcls-1" d="M882.99 1569.82a6.208 6.208 0 00-1.849-4.1A5.871 5.871 0 00877 1564c-2.311 0-3.948 1.78-4.827 2.74a2.156 2.156 0 01-.156.17l-.083-.09c-.8-.92-2.476-2.82-4.938-2.82a5.873 5.873 0 00-4.139 1.72 6.208 6.208 0 00-1.849 4.1 6.845 6.845 0 001.271 4.34 29.307 29.307 0 004.763 4.75c1.705 1.41 3.95 3.09 4.965 3.09 1.032 0 3.269-1.68 4.965-3.09a29.234 29.234 0 004.746-4.75 6.935 6.935 0 001.272-4.34zm-2.376 3.61a27 27 0 01-4.431 4.42c-2.406 2-3.831 2.79-4.172 2.82-.342-.03-1.77-.83-4.188-2.84a26.78 26.78 0 01-4.437-4.4 5.6 5.6 0 01-1.054-3.54 4.807 4.807 0 014.666-4.57c1.863 0 3.216 1.54 3.943 2.37a1.52 1.52 0 001.059.76 1.731 1.731 0 001.151-.81c.794-.87 2.122-2.32 3.851-2.32a4.807 4.807 0 014.666 4.57 5.528 5.528 0 01-1.054 3.54z" transform="translate(-861 -1564)"/></svg><svg viewBox="0 -10 511.987 511" id="star" xmlns="http://www.w3.org/2000/svg"><path d="M510.652 185.902a27.158 27.158 0 00-23.425-18.71l-147.774-13.419-58.433-136.77C276.71 6.98 266.898.494 255.996.494s-20.715 6.487-25.023 16.534l-58.434 136.746-147.797 13.418A27.208 27.208 0 001.34 185.902c-3.371 10.368-.258 21.739 7.957 28.907l111.7 97.96-32.938 145.09c-2.41 10.668 1.73 21.696 10.582 28.094 4.757 3.438 10.324 5.188 15.937 5.188 4.84 0 9.64-1.305 13.95-3.883l127.468-76.184 127.422 76.184c9.324 5.61 21.078 5.097 29.91-1.305a27.223 27.223 0 0010.582-28.094l-32.937-145.09 111.699-97.94a27.224 27.224 0 007.98-28.927zm0 0" fill="#ffc107"/></svg><svg viewBox="0 0 14.31 11.62" id="twiter" xmlns="http://www.w3.org/2000/svg"><defs><style>.zcls-1{fill:#a1a1a1;fill-rule:evenodd}</style></defs><path id="zPath_2" data-name="Path 2" class="zcls-1" d="M1109.69 1902.28c-.11.16-.21.3-.33.45a5.7 5.7 0 01-1.07 1.01l-.05.09a8.22 8.22 0 01-.07 1.31 8.818 8.818 0 01-.77 2.61 8.712 8.712 0 01-1.6 2.3 7.864 7.864 0 01-4.05 2.25 8.967 8.967 0 01-1.64.2h-.26a8.172 8.172 0 01-4.42-1.27l-.07-.04a5.322 5.322 0 00.69.04 6.049 6.049 0 002.25-.44 5.834 5.834 0 001.4-.82 2.9 2.9 0 01-2.71-2.03 3.287 3.287 0 00.54.05 2.82 2.82 0 00.71-.09l.05-.02a2.9 2.9 0 01-2.32-2.9 2.914 2.914 0 001.31.35 2.914 2.914 0 01-1.2-1.78 2.877 2.877 0 01.34-2.12 8.311 8.311 0 006.02 3.07c-.02-.12-.03-.22-.05-.33a2.8 2.8 0 01.45-1.91 2.853 2.853 0 011.99-1.33 3.439 3.439 0 01.54-.04 2.833 2.833 0 012.03.86.139.139 0 00.1.05.09.09 0 00.05-.01 5.547 5.547 0 001.71-.65l.04-.02a2.919 2.919 0 01-1.25 1.6 5.859 5.859 0 001.64-.44z" transform="translate(-1095.38 -1900.88)"/></svg></svg>